<svg xmlns="http://www.w3.org/2000/svg" xmlns:xlink="http://www.w3.org/1999/xlink" preserveAspectRatio="none" width="800" height="800"><defs><path fill="#FFF" d="M682.85 682.8Q800 565.7 800 400q0-165.7-117.15-282.9Q565.7 0 400 0 234.3 0 117.15 117.1 0 234.3 0 400t117.15 282.8Q234.3 800 400 800q165.7 0 282.85-117.2m37.65-400.65.1.2 1.45 3.7L725 299.2l1.65 17.75v.9q0 4.75-.15 7.25l-.55 7.5v.2l-.5 3.7v.2l-.05.1-1.9 11.4-2.8 10.8-2.7 8.45-5.55 13-4.45 8.5-.1.1-.05.2-4.2 6.85-.1.1-6.15 9.05-5.2 6.45q1.9 6.65.65 13.95l-1.3 8.25v.3l-2.8 16-6.3 27.35-6.25 20.05-4 11.15-.15.3-6.15 14.8q-2.5 5.6-5.4 11.3-2.45 4.9-6.15 11.45l-6.9 11.55q-7.2 11.6-16 23.15-8.75 11.5-19.2 22.7-5.25 5.5-10.8 10.9l-11.55 10.55q-5.1 4.5-12.2 10.2L563 646.5l-11.9 7.75q-6.25 4-14.35 8.4-7.65 4.2-15 7.6l-15.55 6.6q-15.85 6.2-32.35 10.35-16.45 4.05-33.4 6.1L424 695q-9.25.65-16.7.7-8.3.2-16.55-.15-8.85-.35-16.5-1.1-7.65-.75-16.1-2-9.25-1.55-15.8-2.9-8.75-1.95-15.35-3.8-1.7-.4-3.75-1l-25.4-8.45q-7.5-2.9-13.7-5.6-7.85-3.6-13.05-6.2l-10.15-5.4-.4-.25-.4-.15-13.2-7.95q-5.55-3.45-10.95-7.2-4.4-3.15-10.2-7.5l-19-15.95q-.7-.6-1-.95l-12.5-12.25-.1-.25-11.5-13.5-20.15-27.7h-3.6l-14.75-.65-15-2-16.75-4.45q-3.3-1.1-6.7-2.55-3.15-1.25-6.6-3.05-3.95-1.95-6.55-3.65l-12.35-8.95q-1.35-1.1-2.85-2.65l-2.7-2.7q-2.95-3.1-5.2-5.9l-4.6-6.4q-2.3-3.55-4-6.75l-4.5-12.6-.05-.3-.5-1.75-.05-.35-.35-1.4-1.15-7.55v-.4l-.15-.75-.1-10.3q.15-3.3.6-5.85l1-5.75 3.6-11.65 4.35-9.3q2.85-5.2 5.5-9.05l3-4.15 11.95-13.55 1.35-1.2.4-.5 7.6-6.65 14.95-10.95 8.65-5.45 12.05-6.1.15-5.6q.45-5.85.95-10.35.5-5.35 1.25-10.4v-.1q.05 0 .05-.25v-.2l.5-3.2v-.3l1.1-6.4q.75-3.8 2.2-10.4l2.5-10.3q.1-.35 1.4-5.15l2.55-8.25 6.2-16.9q4.2-10.3 8.75-19.45l9.8-18.05 6-9.6q.3-.45 5.9-8.8l2.3-3.2.3-.6 2.35-3.2.25-.2v-.1l2.35-3.1.1-.1.05-.15 14.5-18.15 9.65-10.8 19.3-18.75 5.3-4.5q2.8-2.3 8.75-6.8l8.65-6 .05-2q.15-4.75 1-10.05.75-5.2 2.1-9.8l3.2-9.35q1.95-4.75 4.05-8.7l3.85-6.6q.15-.25.25-.4l.05-.1.1-.1 6.35-8.6 4.15-4.4.55-.5q1.25-1.25 1.95-1.85l1.45-1.35 5.95-4.6.25-.1.3-.25 10.55-6.65 6.4-3.15q3.45-1.6 8.2-3.4 3.6-1.3 8.55-2.75 5.1-1.35 8.7-2 8.85-1.55 17.4-1.65h5.95l.2.05 3.65.15.35.05h.35l7.6 1q5 .85 9.5 2.2 4.45 1.2 9.5 3.4 4.7 2.1 8.95 4.65 4.1 2.55 8.25 5.9 4.15 3.4 7.2 6.6 3.4 3.7 6.1 7.2l3 4.2.05.1.05.05q.15.25.15.3l2.2 3.35v.05l4.1 7.75q2.25 5 3.5 8.75.65 2.05 1.2 4.05 7 .85 13.85 1.95l17.85 3.6q9.5 2.2 17.6 4.75l17.3 5.95 16.75 7.25 24.85 13.9.2.15.15.05.15.1h.05l5.95 4.05.25.1.1.1.1.05 21.3 16.35 6.25 5.55q7.35 6.95 12.65 12.55l5.25 5.7 16.95 21.6q5.1 7.25 9.55 14.55l3.95 6.8.05.05v.05l.1.1 8.95 16.25.15.5.25.5v.15l.45 1.45v.3l.05.35.05 2.6-.05.15-.55 2.6q0 .15-.2.15l-2.55-.5-.15-.05h-.15l-.05-.05-2.2-1-.3-.2-.3-.1-1.05-.85-.15-.1h-.05l-12.6-14.85-.25-.15v-.05l-4.9-5.6q-6-6.5-11.4-11.65l-6-5.5q-4.05-3.6-6.15-5.3l-3.1-2.55q-.6-.45-3.15-2.45l-.4-.4-6.05-4.45q-6.7-4.8-13.25-8.9l-15.3-8.75-18.6-8.8-.05-.05v.05l-25.9-9.2-14.9-3.85-8.5-1.7q-.2-.05-3.8-.7-9-1.45-15.25-2.05l-15.35-1.3q-8.6-.4-15.55-.45l-15.5.4q-9.2.3-16.3-5.6-7.25-5.95-8.55-15.2l-1.55-9q-.1-.3-.1-.45l-.2-.4-.35-1.25q-1.2-3.35-2.8-5.85l-1.3-1.95-.15-.1-.3-.35-.05-.1h-.05v-.05l-.1-.05-.15-.2-.15-.15-1.25-1.5-.1-.25-.15-.1-.55-.6q-1.35-1.35-2.45-2.25l-2.35-1.6q-1.35-.75-2.3-1.1-.75-.35-2.4-.8-1.2-.35-2.55-.5-1.85-.3-2.9-.3l-.4-.05-2.6.05-.4.05h-1.25l-.15.1h-.3l-5.5.75-4.2 1.05q-1.9.55-3.6 1.25-.85.25-3.4 1.45l-4.9 2.65-.2.25-.25.1-.55.4-.25.1-2 1.4-.15.15-.65.4-.2.3-.1.05-1.6 1.2-.15.15v.05h-.05v.05l-.2.15-.75.75-.05.1-.35.2-.25.45-.15.15v.05l-.15.15-.1.15-.1.25-.2.15-.2.4-.4.6-.05.05v.05l.05-.05-.55.95v.05l-.1.3-.25.35-.15.3-.05.3-.2.15-.3.7q-.85 2.15-1.15 2.85l-.2.7-.05.3-.3 1-.05.3-.05.05v.15l-.05.15-.4 2.5-.1 3.55.05.35v.7l.5 3.5q.1.85.75 3.2 3.35 11.3-1.3 22.15-4.8 11.05-15.55 16.35l-.65.3q-4.25 2.15-6.4 3.45l-5.05 3-.25.1-7.6 5.2q-2.7 1.9-6.35 4.75-3.65 2.85-6.35 5.2l-8.5 7.55-.35.4-9.1 8.95-.45.35-16 17.7-9.6 11.8-12.35 17.35-10 16.65-.15.2-1.25 2.35-.3.45-10.05 21.55q-.5 1.35-1.6 4l-2.95 7.95q-1.3 3.85-2.6 8.15l-1.35 4.4-.05.1v.2l-.1.25-.9 3.35v-.05l-5.85 27.7v.2l-1.85 14.8-.95 16.1q4.6 2.15 9.75 4.1 5.9 2.25 11.6 3.8l6.75 1.7.15.1 3.15.75h.15l.15.05h.05l3.4.7h.1l.05.05 10.55 1.65q6.4.9 12.75 1.4l26.1.85q6.55-.2 6.6-.2l6.55-.25q7.4-.45 13.3-.95l38.25-5 31.15-6.15h.2l.2-.05.9-.05.15-.05h.25l.45-.1h.65l.25-.05h1.7q.55 0 .95.05l1.35.1.2.05h.25l2.4.4.2.1h.1l1.15.3h.05q.1.15 0 .2l-.65.75-.1.2-.1.05-1.85 1.9-.15.1-.15.15-3.45 2.5-1.05.6-.05.05-.1.05-.15.05-1.2.65-34.8 12.7-33.65 9.7q-5.7 1.45-13.65 3.2l-27.85 4.9q-7.7 1-14.2 1.55-6.1.5-14.45.8h-12.5l-.3-.05-7.9-.4-.3-.05-8.5-.75q-8.15-.95-14.95-2.4-7.8-1.6-14.9-3.75-7.75-2.3-14.85-5.25-4.1-1.8-6.95-5.35-3-3.7-3.8-8.35l-2.05-15.25-2.35 1.95q-3.05 2.8-5.45 5.2l-7.1 7.2-8.3 10-2.65 3.85-.05.15q-1.9 2.75-3.2 5.35l-.65 1.35-.15.25-.1.35-.4.65-2.4 6.45-.95 4.1v.1l-.05.2-.3 2.5v.3l-.05.35-.05 1.25.25 5.35.15.95v.15l.15.85v.15l1.35 5.35q.85 1.75 1.25 2.4l.2.5 1.9 3.25q1.05 1.65 2.45 3.5l2.8 3.3q2.75 3.05 6.55 6.2l7.85 5.35q2.1 1.35 4.35 2.45l6.95 3.3 12.6 4.6 16.15 4.15q6.15 1.15 11.35 2l35.3 3.4q7.65.55 24.25 1.45l16.4 1.05h.15l2.1.5h.1l1.45.65.45.1 1.2.6.05.05.3.1 1.55 1.05.05.1h.05l.05.05.25.15.35.4h.05q.1.1 0 .15l-.55.6v.05l-.2.1-1.45 1.15-.2.25-.1.05-1.45.95-1.35.6h-.05l-2.2.85h-.15l-.8.2-16.6 2.65 7.5 10.15.25.25.75 1 1.3 1.4.35.45 16.3 16.45.2.15 4.5 4q4.45 3.65 7.8 6.35 4.8 3.65 8.45 6.2l10.2 6.8 8.55 5q3.85 2.2 10.3 5.45 5.75 2.8 10.9 5.1l9.4 3.8.2.05h-.05l13.85 4.75q6.3 1.95 12.35 3.45 6.6 1.6 12.85 2.8 6.35 1.2 13.1 2.05 7.05.95 13.45 1.35 6.7.5 13.55.55 6.4.05 13.8-.3l14.05-1.1q14.1-1.35 27.35-4.4 13.15-2.95 26.3-7.95l12.75-5.15q6.75-3.2 12.2-6.1 6.2-3.3 11.75-6.75l10.05-6.65.05-.05 12-8.9q5-4 10.15-8.55l9.4-8.9q5.45-5.55 8.8-9.3l6.1-7.15q1.4-1.65 1.9-2.35 3.5-4.3 7.35-9.7l3.4-4.85 13.35-22.1 1.15-2.45q1.95-3.6 4.7-9.5 1.45-3.1 4-9.3l4.45-12.25 4.7-17.7.5-2.95-9.15 5.85-31.6 17.05-16.95 7.65-25.75 9.75.5 3.2q.1 1.7.15 3.45-.05 1.05-.05 2.2-.75 14.55-11.05 25.9-10.6 11.5-25.5 13.55-1.8.25-3.55.35-13.4.75-23.3-7.45-4.8-4-7.6-8.85-3.6-6.1-4.3-13.85L450 531.1q-1.3.1-1.85.1l-9 .6q-1.6.15-3.35.15-7.45.45-12.35.5l-11.8.15q-.35-.05-1.1-.05h-.85l-.25-.05q-.75 0-1.15-.05h-.6l-.1-.05h-.35l-3.4-.5h-.2l-6-1.4-3.65-1.4-.05-.05h-.1l-.4-.25-.8-.35h-.05q-.15-.2 0-.2l1-.7.15-.2 8.95-4.55.2-.05 3.25-1.2.2-.05.25-.1.5-.1q1-.35 4.25-1.25l34.5-9.85 22.85-7.7 35.45-13.7.25-.05 30.25-13.7 17.55-9.15 11.9-6.8 24.6-15.5q.35-.15 2.2-1.4l3.95-2.6.1-.1h.15l20.8-14.5 22.05-16.35q.65-.6 2-1.6l.5-.45.15-.05.15-.15 17.1-14.45 21.15-20.9.3-.45.95-.9.05-.1 5.6-6.7.35-.3 10.9-15.8 7.9-15.5.05-.05v-.05l1.4-3.2.05-.2 2.2-5.8q1.25-4.1 1.75-6.1l1.4-5.75 1.6-10.6 1.05-18.6.25-1.8v-.25l.5-2.6.05-.15.05-.1.3-.85v-.05q.15-.15.15 0l.8.9.15.2q1.8 2.25 2.4 3.4l1.25 2.3.05.2M97.65 499.05l-.05-.25q-.2-.5-.45-1l.5 1.25z" id="b"/><path fill="url(#a)" d="M914.55-80.85h-982.4v982.4h982.4v-982.4z" id="d"/><path fill="#00F" d="M917.55-83.85q-1.25-1.25-3-1.25l-368.45 1-552.55 2.3-61.4.85-.1.1L-69 41.9l-3.45 859.6q0 1.9 1.35 3.3 1.35 1.35 3.25 1.35l368.4.85 614 .3q2.35 0 4.05-1.7 1.7-1.7 1.7-4.05l-1.5-982.4q0-1.75-1.25-3M-67.7-80.7l61.25.85 552.55 2.3 364.15 1-1.5 972.3-608.2.3-363.8.8-3.4-854.95-1.05-122.6z" id="e"/><linearGradient id="a" gradientUnits="userSpaceOnUse" x1="-62.15" y1="640.338" x2="908.85" y2="180.363" spreadMethod="pad"><stop offset="0%" stop-color="#63E3D9"/><stop offset="48.235%" stop-color="#63E399"/><stop offset="100%" stop-color="#E3D963"/></linearGradient></defs><mask id="c"><use xlink:href="#b"/></mask><g mask="url(#c)"><g><use xlink:href="#d"/><use xlink:href="#e"/></g></g></svg>