<svg xmlns="http://www.w3.org/2000/svg" xmlns:xlink="http://www.w3.org/1999/xlink" preserveAspectRatio="none" width="1760" height="640"><defs><path fill="#FFF" d="M532.85 78.35h-66V579.1h66V78.35M344.4 310.5q25.1-34.75 25.1-81.5 0-73.6-45.4-112.15-45.75-38.5-130.35-38.5H28V579.1h66.35V376.55H212L320.65 579.1h70.85v-4.15L273.9 362.4q45.05-17.15 70.5-51.9M195.45 132.35q52.3.35 80.15 25.1 27.5 24.75 27.5 71.55 0 42.65-28.85 68.1-29.25 25.45-78.45 25.45H94.35v-190.2h101.1m843-54h-65.7v387.6l-252.8-387.6h-66.4V579.1h66.4V193.2l252.1 385.9h66.4V78.35m654.25 431.6q-18.55 0-27.85 10.7-9.6 10.65-9.6 26.1 0 15.5 9.6 25.8 9.3 10.35 27.85 10.35 18.6 0 28.2-10.35 9.65-10.3 9.65-25.8 0-15.45-9.65-26.1-9.6-10.7-28.2-10.7m-213.35-352.9q-3.2-2.8-5.9-4.95l-17.55-12.65-.2-.2q0 .05-.15-.05l-.1-.05-10.85-6.6-17.55-8.75q-3.8-1.65-7.25-3l-14.85-5.25q-6.75-2.1-15.15-4.15l-15.4-3.1q-6.99-1.173-14-1.95-.622-2.597-1.4-5-1.35-3.95-2.9-7.35l-3.15-6.1-.4-.6v-.05l-.05-.1-.1-.1-1.5-2.4-.15-.3-.1-.15-.15-.15V84l-.1-.1-2.15-3.1q-2.7-3.6-5.05-6.05-2.9-3.15-5.85-5.6-2.75-2.4-6.75-5-3.5-2.2-7.45-4.05-3.55-1.65-7.85-3.05-3.95-1.25-8.05-2l-11.15-1.2-4.3-.05q-7.5.1-14.85 1.4l-7.4 1.7q-4.4 1.25-7.25 2.35-3.45 1.3-7 2.95l-.45.2-.4.25-1.3.6-9.25 5.45-.2.15-.2.1-2.7 1.9-.05.05h-.05l-.1.1-.45.3-4.3 3.5q-2.2 2-3.25 3.1l-5.55 6.4-6.8 11.15q-1.5 3.05-3.25 7.45l-2.6 8.4-1.45 7.7q-.55 3.95-.65 8.35-.02 1.592 0 3.25l-11.3 8.25-.25.15-18.35 16.45q-3.55 3.65-6.3 6.65l-20.7 25.35-.4.6-.1.1-1.8 2.5-.05.1-.05.05q-.05.1-.1.15l-4.5 6.55q-2.35 3.45-4.95 7.6l-6.65 11.3-12.05 25.2-3.25 8.55q-.9 2.4-1.5 4.3l-5.75 19.75-3.35 16.7v.3l-1 6.9-.05.1v.25l-.05.3q-.7 6.15-.95 8.95-.35 4.5-.6 9v4.95l-9.4 4.9q-4.05 2.35-6.6 4-3 1.9-6.5 4.35l-6.35 4.75q-2.1 1.65-6.2 5.15-4 3.7-5.95 5.7l-8.45 9.6-2.6 3.6q-2.55 3.6-4.75 7.7l-3.8 7.95-.1.3-.15.25-2.3 6.95-1.7 8.25v.3l-.15 1.3q0 .1-.15 1.25l-.1.95v.3q-.35 4.95.1 10.15l1.2 7.7.1.3.25 1.25.1.3.05.3 3.05 9.2 1.6 3.15.1.25 2.3 3.85 5.25 7.3 7.75 8.1q3.2 2.9 6.85 5.55l7.3 4.65q3.65 2.05 7.55 3.8 7.1 3.25 15.3 5.4l7.7 1.8q4.35.85 7.6 1.3l10.35 1.05q.35.05.95.05l3.75.2q3.7.15 7.4.15l3.2-.1q.925 2.714 2.6 5.25l15.4 18.8 7.5 7.95.05.1.15.1 1.2 1.2q.25.3.2.2l14.2 13.05q1.95 1.7 6.8 5.6l14.4 10.55 16.6 10.3 12.2 6.4q5.35 2.6 10.4 4.8l12.65 5.1 9.65 3.35q7.8 2.4 11.85 3.45l12.25 3q6.4 1.35 12.65 2.4 13.35 2.1 26.25 2.75 6.7.3 13.4.3 6.75-.05 13.5-.45l13.65-1.2h.25l.2-.05 6.55-.8.4-.1 5.95-.85q13.65-2.25 27-6.15 13.25-3.85 26.05-9.4l12.5-5.9q5.75-2.9 12-6.55l.7-.45.4-.2 14.55-9.45q.05 0 .3-.15l16.7-12.75q4.65-3.8 9.8-8.5l9.25-8.85q4.1-4.2 8.6-9.15 4.35-4.9 7.95-9.35 4.2-5.2 7.3-9.5l13.55-20.35 7.2-12.95 6.65-14q2.3-5.4 3.7-9.05l5.9-17.05q1.05-3.4 2.3-7.95l3.75-15.2 5.15-30.9q.454-3.233.05-6.25l8.4-10.4 5.6-8.15.05-.15q.25-.3.25-.25l.1-.25.3-.4 7.6-13.95 3.85-9.2 3.75-12.35q.6-2.45.9-3.65l1.85-10.65.05-.1v-.2l.05-.2.35-2.95v-.2l.05-.2v-.45l.25-2.5q.15-2.15.15-3.25.15-3.5.1-6.2l-.85-12.35-3-14.6-.1-.2-.1-.35-1.25-3.15-1.05-1.95q-.55-.95-2.05-2.9l-.15-.25-.1-.1-.1-.05-.5-.55q0-.15-.15 0v.05l-.2.7-.05.1-.05.15-.45 2.2v.2l-.45 3.4-.85 15.7-2.25 11.7-.2.65q-.85 3.1-1.55 5.15l-1.7 4.6-.1.35-.1.15-.05.15-4.45 9.6-6.15 10.5-6.65 9.25-.3.3-3.05 3.7-.25.35-1.2 1.3-.25.35-.1.05-.05.1-1.3 1.35-.25.35-.15.15-.2.15-1.8 2-.1.05-15.6 15.2-12.2 10.35-.2.2-4.3 3.35-.05.05-.1.05-.2.2-29 21.1-27.2 17.75-16.15 9.45-.25.1-2.45 1.35-.05.05-.15.05-12.6 6.55q-3.45 1.75-7.45 3.6l-18.55 8.2-.25.05-13 5.3-31 11.15-.2.1-16.4 5.15q-3.3 1-9.9 2.8l-8.45 2.2q-2.8.75-3.65 1.05l-.4.1-.1.05-.35.1-2.7 1-.2.05-.15.1-4.3 1.95-3.1 1.85-.1.1-.95.7q-.15 0 0 .15h.05l.65.35.25.1.1.1h.1l.05.05 3.1 1.2.3.05 5.05 1.2 2.9.35h.25l.1.05h.55q.3.05.95.05l.2.05 11.7-.1q3-.05 10.6-.35l7.4-.4q1.1-.1 1.55-.1l19.55-2q.572 6.488 3.65 11.7 2.4 4.2 6.45 7.55 8.55 7 19.95 6.4 1.45-.1 3.05-.3 12.7-1.8 21.75-11.6 8.8-9.7 9.4-22.15 0-.95.05-1.85-.05-1.5-.15-2.95-.132-1.278-.4-2.5l4.5-1.5 25.65-10.5q5.7-2.6 8.55-4l4.25-2.1q1.45-.7 4.25-2.2l6.3-3.4 22.6-14.3-1.7 9-3.8 13.5-.35.9q-2.65 7.8-6.1 15.55l-5.95 12.15-.15.25-.05.15-10.9 18.1-.2.25-1.4 2.1q-3.4 4.8-6.1 8.25l-6.6 8.15q-3.75 4.35-7.25 7.95l-7.8 7.7q-3.8 3.5-8.35 7.35l-13.55 10.4-.6.4-.3.25h-.05l-.15.15-9.7 6.3q-.3.2-1.25.75l-2.45 1.5q-5.7 3.25-10.2 5.45-4.05 1.95-5.25 2.5l-5.3 2.35q-10.85 4.55-22 7.6-10.75 2.95-22.8 4.75l-11.1 1.3h-.4l-.2.05-11.65.75q-6.2.25-11.55.1-5.35-.05-11.35-.55-11.8-.95-22.05-2.95-10.95-2.05-20.9-5.15-3.65-1.1-9.9-3.3l-2.4-.9-.2-.05-5.15-2-.25-.15-.3-.1-10.2-4.55q-5.35-2.6-8.5-4.3l-9.45-5.45-17.05-11.85-8.2-6.8q-2.5-2.2-5.4-4.9l-11.15-11.4q.05.035.05 0l-.1-.05-1.25-1.4-.05-.1-.25-.25-6.2-7.5 23.4-3.7q7.45-1.3 13.7-2.6 7.95-1.55 13.65-2.95l17-4.6q1.85-.6 3.3-1.35l2.55-1.65.05-.05h.05l.05-.1.4-.3.7-.65 1.35-1.55.6-.9q.1-.1-.05-.15l-.8-.3-3.05-.7-.45-.05h-.15l-.05-.05h-.05l-2.85-.15q-.8-.05-3.35.2l-11.7 1.1q-1.2.1-1.7.1l-3.4.2q-7.5.35-13.55.4-9.1.1-13.6.05l-49.5-1.4-21.1-1.7-18.2-3.15-3.3-.85q-2.75-.7-5.8-1.65l-5.55-1.9q-5.2-1.95-10.15-4.7-2.8-1.6-4.5-2.8l-.1-.1-.15-.05-3.8-2.9q-1.75-1.5-3.55-3.35l-3.1-3.65q-1.55-2-2.65-3.9l-.75-1.25-.1-.25-.8-1.45-1.25-4.4-.05-.1-.1-.55v-.15l-.05-.15-.15-.8v-.25l-.25-2.15v-.25l-.05-.25v-2.9l.05-.25v-.7l.05-.1v-.25l.15-1.05v-.3l.1-.5v-.15l.05-.05v-.1l.3-1.6.95-3.25.05-.25 2-4.8.3-.55q1.25-2.55 2.6-4.6l6.85-9.2q1.3-1.55 4.1-4.55 1.95-2.15 4.45-4.5l7.7-6.75q.745 5.327 1.75 10.9l.35 1.95q.65 3.5 2.95 6.25 2.15 2.65 5.3 4.05 5.95 2.55 12.45 4.55 6.25 1.95 12.6 3.3 6.05 1.3 12.65 2.15l3.9.45h.4l3.15.3h.2l.1.05 6.7.35.15.05h15.5l.4-.05 6.9-.35q4.1-.3 12.2-1.2l20.15-3.2.35-.1.4-.05 14.65-3.25q5.8-1.4 11.55-3l32.5-10.25 14.5-5.4.3-.2 1-.5.2-.05 3.05-1.9.6-.5.3-.2.15-.15.1-.05 1.85-1.7.55-.65q.1-.05 0-.15h-.05l-.85-.2-.1-.05h-.3l-2-.25h-.35l-.4-.05-3.05.05-.75.1h-.35l-.2.05h-.2l-29.15 5.95-15.7 2.6-30 2.95h-.35l-.35.05-19.1.3q-5.05-.15-11.2-.55l-6.6-.6h-.3l-13.5-2-8-1.75-.35-.05-3.55-.95q-5.65-1.55-10.1-3.2-4.7-1.7-9.6-4-.301-.146-.6-.3l1.85-30.25.05-.15v-.1l1.15-7.7q.6-3.75 1.35-7.5l1.7-7.65v.05l.05-.05v-.15l.65-2.75.1-.25.7-2.85.1-.2.65-2.5.1-.2 4.45-13.85 9-21.05 3.2-6.2 9-15.25 16.45-22.5.2-.2.05-.1 15.8-17.85.15-.2 2.75-2.8q.9-.9 5.3-5.2l5.4-4.9q3.55-3.05 5.5-4.65l3.5-2.7.15-.15.2-.1 10.4-7.2 8.45-4.7q8.3-4.2 12.05-12.7 3.65-8.45 1.2-17.25l-.75-2.75-.05-.4q-.35-1.3-.5-2.95-.15-1.5-.15-2.85 0-1.8.1-2.7l.35-2.35v-.05l.05-.1v-.15l.1-.35.05-.35.2-.65.05-.35.15-.35.05-.35.15-.35q.5-1.55 1.05-2.75l.3-.75.1-.15.7-1.4-.05.05v-.05l.35-.6q.1-.1.15-.2V114l.05-.05.1-.25.1-.1.1-.2.5-.75q.4-.6 1.35-1.65l.2-.15.95-.95.15-.1 1.25-1 .1-.1.1-.05.1-.1 4.05-2.8.2-.1.2-.15.75-.4q1.4-.85 3.1-1.65 1.2-.6 3.2-1.3l1.6-.6.45-.1.4-.15.45-.1.4-.15q3.5-.95 7.1-1.3l1.95-.15.2-.05h1.55l.15-.05h1.7l.4.05h.35l.35.05q1.15.05 2.8.35.9.15 2.6.65.8.25 2.4.95 1.3.65 2.35 1.35 1.3.8 2.35 1.8 1 .8 2.35 2.25l1.1 1.3.1.1.8 1.05.1.1.15.2h.05v.05l.05.1.15.15 1.55 2.35q1.7 2.9 2.65 5.9l.15.4v.1l.05.1.15.6.05.05v.1l.2.7v.05l.05.15 1.3 7.5q.95 7.1 6.5 11.7 5.45 4.6 12.55 4.4l13.55-.1q5.5.05 13.5.6l13.45 1.3q5.45.7 13.3 2.1l13.15 2.9q.5.1 6.5 1.8l.45.1 8.8 2.85 17.05 6.8q.047 0 0-.05l.05.05 2.9 1.35.15.1 14.5 7.5q2.45 1.35 5.95 3.5l5.9 3.7q5.5 3.65 11.4 8.05l14.15 11.8 7.05 6.7q4.8 4.8 9.7 10.4l4.05 4.75.2.2v.05l.05.1 9.55 11.9.15.15.15.2.8.85h.05l.3.3.75.6 2.25 1.25h.15l2.2.65.15-.1v-.05l.35-2.1v-.3l-.15-2.05-.05-.25v-.25l-.35-1.15-.05-.1v-.15l-.2-.4-.15-.45-.3-.6-.15-.2-7.35-13.4-.05-.05v-.05l-.15-.2-3.3-5.65q-3.9-6.35-8.25-12.6l-6.15-8.35-12.95-15.15q-5.45-5.75-10.85-10.8l-5.75-5.1m-397.4 257.2-.05-.05-.1-.25.15.3m642.4-335.9h-66.7l4.45 358.7h57.45l4.8-358.7z" id="b"/><path fill="url(#a)" d="M1861.45 707.75v-810.9H-117.9v810.9h1979.35z" id="d"/><path d="M1866.45-103.15q0-2.05-1.45-3.55-1.5-1.45-3.55-1.45h-.05l-494.8.6q-247.45.4-494.85.9l-742.25 1.8q-72.2.2-123.7.55l-123.7 1.05-.1.1-.45 50.7q-.2 25.35-.3 50.7l-2.2 709.45q0 1.25.9 2.15.85.9 2.15.95l989.65 2.25 494.85.45q247.4.1 494.8 0h.05q2.35 0 4.05-1.7 1.7-1.7 1.7-4.05v-.05l-.75-810.85M1366.6-98.7l489.8.6-.75 800.05q-244.523-.05-489.05 0l-247.45.2-1233.95 2.5-2.2-706.4q-.05-25.35-.3-50.7l-.45-50.55L5.8-101.95q51.5.4 123.7.55l742.25 1.8q247.4.55 494.85.9z" id="e"/><linearGradient id="a" gradientUnits="userSpaceOnUse" x1="-675.425" y1="438.7" x2="2418.925" y2="165.9" spreadMethod="pad"><stop offset="0%" stop-color="#63E3D9"/><stop offset="48.235%" stop-color="#63E399"/><stop offset="100%" stop-color="#E3D963"/></linearGradient></defs><mask id="c"><use xlink:href="#b"/></mask><g mask="url(#c)"><g><use xlink:href="#d"/><use xlink:href="#e"/></g></g></svg>