<svg xmlns="http://www.w3.org/2000/svg" width="350" height="350" style="shape-rendering:geometricPrecision;text-rendering:geometricPrecision;image-rendering:optimizeQuality;fill-rule:evenodd;clip-rule:evenodd"><path style="opacity:.975" fill="#61e197" d="M158.5 8.5c83.172-1.86 139.672 35.806 169.5 113 19.156 67.837 3.989 126.671-45.5 176.5-45.177 37.79-96.51 49.457-154 35C68.91 313.411 31.41 273.244 16 212.5 2.966 146.274 21.132 90.44 70.5 45c25.801-20.735 55.135-32.902 88-36.5z"/><path style="opacity:1" fill="#519d68" d="M129.5 64.5c14.738-2.29 26.404 2.543 35 14.5 39.169 1.158 69.336 17.991 90.5 50.5a15.256 15.256 0 0 0 1.5 4.5c10.004.055 19.337 2.555 28 7.5 5.897 7.095 6.564 14.761 2 23a397.11 397.11 0 0 1-18.5 15c.694 51.832-23.472 85.665-72.5 101.5-41.604 10.533-75.27-1.134-101-35a44.888 44.888 0 0 0-14.5.5c-20.353-.067-26.686-9.4-19-28a39.793 39.793 0 0 1 7-8 59.026 59.026 0 0 0 5-9c-5.164-38.851 6.503-71.518 35-98-.6-17.48 6.566-30.48 21.5-39z"/><path style="opacity:1" fill="#fcfdfc" d="M133.5 86.5c8.36-.902 14.86 2.098 19.5 9a8.43 8.43 0 0 1 .5 4c32.46-5.682 59.293 3.985 80.5 29 1.879 2.027 3.046 4.36 3.5 7-52.811 5.254-100.811 23.087-144 53.5a4.934 4.934 0 0 1-3 .5c-2.703-34.588 10.131-61.588 38.5-81-1.683-7.988-.183-15.321 4.5-22z"/><path style="opacity:1" fill="#fcfdfc" d="M232.5 145.5c8.34-.166 16.673 0 25 .5a86.777 86.777 0 0 1 12 4.5 28.717 28.717 0 0 1 .5 13 56.628 56.628 0 0 1-16.5 9c.423 28.629-9.243 53.129-29 73.5-6.112 2.414-12.446 3.081-19 2-8.77-5.929-15.103-13.763-19-23.5 8.349-13.749 6.015-25.249-7-34.5-14.447-5.691-24.947-1.524-31.5 12.5-2.365 16.124 4.135 26.79 19.5 32 6.925 13.432 17.592 22.265 32 26.5-39.92 12.914-72.253 2.581-97-31a118.639 118.639 0 0 1-16.5 2.5c-10.735-.793-13.735-6.127-9-16 14.098-15.462 30.598-27.628 49.5-36.5 33.562-17.244 68.896-28.744 106-34.5z"/></svg>