<?xml version="1.0" encoding="UTF-8"?>
<!DOCTYPE svg PUBLIC "-//W3C//DTD SVG 1.1//EN" "http://www.w3.org/Graphics/SVG/1.1/DTD/svg11.dtd">
<svg xmlns="http://www.w3.org/2000/svg" version="1.1" width="512px" height="512px" style="shape-rendering:geometricPrecision; text-rendering:geometricPrecision; image-rendering:optimizeQuality; fill-rule:evenodd; clip-rule:evenodd" xmlns:xlink="http://www.w3.org/1999/xlink">
<g><path style="opacity:0.955" fill="#000000" d="M 212.5,-0.5 C 216.167,-0.5 219.833,-0.5 223.5,-0.5C 226.529,1.37197 228.695,4.03864 230,7.5C 231.109,16.7965 231.776,26.1298 232,35.5C 235.021,26.9292 238.521,18.5959 242.5,10.5C 249.98,3.71207 257.147,4.0454 264,11.5C 264.986,13.7778 265.82,16.1111 266.5,18.5C 264.099,27.035 261.099,35.3683 257.5,43.5C 330.047,48.3539 389.214,78.6873 435,134.5C 487.311,207.024 497.478,285.191 465.5,369C 478.59,380.028 488.09,393.528 494,409.5C 496.14,423.939 492.807,436.939 484,448.5C 470.785,463.031 454.619,472.864 435.5,478C 407.967,485.087 379.967,488.754 351.5,489C 325.944,500.885 299.278,508.385 271.5,511.5C 257.5,511.5 243.5,511.5 229.5,511.5C 152.687,502.688 93.1874,466.022 51,401.5C 12.1172,334.875 5.78387,265.208 32,192.5C 61.0708,123.43 111.238,77.2632 182.5,54C 178.282,45.3488 174.448,36.5155 171,27.5C 169.825,17.6758 174.159,12.3425 184,11.5C 189.385,11.5236 193.385,13.857 196,18.5C 199,25.5 202,32.5 205,39.5C 204.522,28.8552 204.522,18.1885 205,7.5C 206.69,3.97911 209.19,1.31244 212.5,-0.5 Z M 240.5,70.5 C 309.988,69.7531 366.988,95.7531 411.5,148.5C 386.156,146.605 364.656,154.605 347,172.5C 329.329,198.399 332.163,221.899 355.5,243C 382.777,261.292 411.11,262.958 440.5,248C 445.252,245.252 449.419,241.752 453,237.5C 460.441,275.209 457.774,312.209 445,348.5C 443.374,345.872 441.374,343.539 439,341.5C 438.219,340.271 437.719,338.938 437.5,337.5C 439.724,332.051 442.224,326.718 445,321.5C 448.505,312.619 449.505,303.619 448,294.5C 444.21,285.847 437.71,280.347 428.5,278C 416.872,275.482 405.205,273.148 393.5,271C 384.888,265.387 376.554,259.387 368.5,253C 350.397,240.794 331.063,238.128 310.5,245C 294.641,253.427 278.974,262.094 263.5,271C 247.129,271.881 230.796,273.215 214.5,275C 190.21,279.261 180.044,293.427 184,317.5C 185.163,322.828 187.163,327.828 190,332.5C 195.626,339.794 201.626,346.794 208,353.5C 215.479,364.377 217.313,376.044 213.5,388.5C 200.975,384.492 188.642,379.992 176.5,375C 164.287,354.406 153.787,332.906 145,310.5C 139.495,294.258 139.162,277.924 144,261.5C 147.836,249.495 152.503,237.829 158,226.5C 159.313,222.58 160.313,218.58 161,214.5C 170.916,239.066 189.082,253.232 215.5,257C 237.669,260.529 258.335,256.529 277.5,245C 303.43,224.93 307.597,201.097 290,173.5C 270.191,153.912 246.357,146.079 218.5,150C 198.299,152.18 181.799,161.013 169,176.5C 163.229,184.908 160.229,194.241 160,204.5C 156.802,195.642 150.468,190.975 141,190.5C 136.082,191.184 131.248,192.184 126.5,193.5C 127.443,186.856 127.609,180.189 127,173.5C 123.767,161.461 115.934,156.295 103.5,158C 96.6588,159.934 90.3255,162.6 84.5,166C 85.9943,159.869 87.4943,153.703 89,147.5C 128.576,100.462 179.076,74.7951 240.5,70.5 Z M 225.5,175.5 C 242.75,174.414 257.583,179.748 270,191.5C 276.862,202.895 275.029,212.728 264.5,221C 243.287,234.227 221.62,234.893 199.5,223C 185.748,213.859 183.581,202.692 193,189.5C 202.514,181.612 213.347,176.945 225.5,175.5 Z M 396.5,175.5 C 413.6,174.307 427.434,180.307 438,193.5C 443.109,207.138 439.275,217.638 426.5,225C 409.828,233.666 393.161,233.666 376.5,225C 362.715,216.955 359.215,205.788 366,191.5C 374.374,182.565 384.54,177.232 396.5,175.5 Z M 98.5,189.5 C 98.5447,196.971 98.7113,204.638 99,212.5C 103.932,222.88 112.099,226.713 123.5,224C 125.762,223.358 127.929,222.525 130,221.5C 130.167,221.833 130.333,222.167 130.5,222.5C 120.626,241.663 114.959,261.996 113.5,283.5C 114.173,299.03 117.339,314.03 123,328.5C 131.882,348.598 141.549,368.264 152,387.5C 154.799,411.181 152.133,434.181 144,456.5C 71.255,409.008 37.9217,341.675 44,254.5C 46.5587,232.494 52.5587,211.494 62,191.5C 67.2851,199.282 74.4518,201.782 83.5,199C 89.2088,196.76 94.2088,193.593 98.5,189.5 Z M 325.5,267.5 C 334.798,267.158 343.464,269.324 351.5,274C 361.15,281.492 371.15,288.492 381.5,295C 392.286,298.298 403.286,300.631 414.5,302C 417.422,302.417 420.089,303.417 422.5,305C 418.871,313.093 415.371,321.26 412,329.5C 408.976,340.738 411.309,350.738 419,359.5C 431.637,373.138 444.637,386.471 458,399.5C 462.933,404.867 466.433,411.033 468.5,418C 467.989,422.522 466.489,426.689 464,430.5C 456.106,439.868 446.273,446.368 434.5,450C 405.848,458.832 376.515,462.666 346.5,461.5C 320.595,462.051 294.928,459.884 269.5,455C 257.423,452.878 246.923,447.711 238,439.5C 236.213,435.686 235.046,431.686 234.5,427.5C 236.935,413.493 239.435,399.493 242,385.5C 243.674,368.865 240.008,353.532 231,339.5C 225.374,332.206 219.374,325.206 213,318.5C 206.234,308.453 208.734,302.62 220.5,301C 236.831,299.63 253.164,298.296 269.5,297C 276.404,294.549 283.07,291.549 289.5,288C 301.107,280.367 313.107,273.533 325.5,267.5 Z M 179.5,405.5 C 189.559,408.631 199.559,411.964 209.5,415.5C 205.092,445.844 217.426,466.011 246.5,476C 255.373,478.968 264.373,481.468 273.5,483.5C 237.546,488.006 202.879,483.172 169.5,469C 169.043,468.586 168.709,468.086 168.5,467.5C 176.028,447.525 179.695,426.859 179.5,405.5 Z"/></g>
<g><path style="opacity:0.905" fill="#000000" d="M 220.5,196.5 C 233.304,194.477 239.138,199.81 238,212.5C 235.034,220.055 229.534,222.888 221.5,221C 213.838,217.312 211.338,211.479 214,203.5C 215.694,200.642 217.861,198.309 220.5,196.5 Z"/></g>
<g><path style="opacity:0.901" fill="#000000" d="M 394.5,196.5 C 410.11,195.954 414.944,202.954 409,217.5C 401.347,223.251 394.347,222.584 388,215.5C 384.563,207.075 386.73,200.742 394.5,196.5 Z"/></g>
<g><path style="opacity:0.922" fill="#000000" d="M 299.5,301.5 C 303.747,301.178 307.747,302.011 311.5,304C 314.167,307.667 316.833,311.333 319.5,315C 328.794,317.745 332.294,323.911 330,333.5C 325.21,341.523 318.377,343.69 309.5,340C 302.386,336.553 296.886,331.386 293,324.5C 287.385,314.523 289.551,306.856 299.5,301.5 Z"/></g>
<g><path style="opacity:0.917" fill="#000000" d="M 358.5,301.5 C 372.076,301.651 377.242,308.318 374,321.5C 369.419,330.415 362.586,336.915 353.5,341C 340.326,343.154 334.16,337.654 335,324.5C 336.927,319.572 340.427,316.406 345.5,315C 347.7,312.766 349.533,310.266 351,307.5C 353.134,304.847 355.634,302.847 358.5,301.5 Z"/></g>
</svg>
