<svg version="1.0" xmlns="http://www.w3.org/2000/svg" width="666.667" height="666.667" viewBox="0 0 500 500"><path d="M202.9 3.1 200 6.2v15.7l-.1 15.6-4.5-10.5c-2.4-5.8-5.6-11.5-6.9-12.7-3.6-3.2-8.7-3.9-14.1-1.8-8.6 3.3-9.6 10.4-3.3 24.7 2.2 5.1 4.7 10.7 5.4 12.4l1.4 3-10.2 3.7c-39.3 14.3-75.2 39.5-100 70.2-22.4 27.8-37.2 57.4-45.1 90.3-5.1 21.2-6.1 30.1-6.1 55.7 0 27 1.7 39.5 8.1 61.8 8.8 30.7 22.9 57.6 43.1 82.2 37.6 45.8 88 73.5 149.6 82.1 8.6 1.2 16.4 1.5 33.2 1.1 19.6-.4 23.6-.8 36.7-3.6 16-3.4 37.2-10 48.3-15 6.5-3 8.1-3.3 23.2-4.1 37.2-2.1 72.3-9.6 89.2-19.1 23.7-13.4 35.1-29.7 35.1-50.4 0-6.2-.5-8.1-4-15.4-5.2-10.8-8.9-16.1-17.2-24.7l-6.8-7.1 4.4-13.4c14-42.8 16.6-87.6 7.1-127.3-7.8-33.3-25.8-69.5-46.8-94.3-26.3-31.4-63-56.5-101.4-69.7C298.9 49 269.6 43 256.5 43c-4.1 0-4.7-.2-4.1-1.8.3-.9 2.2-6.4 4.2-12.2 4.3-12.1 4.2-14.4-1.1-19.7-2.8-2.8-4-3.3-8-3.3-7.3 0-9.8 2.1-14.4 12.2-2.2 4.8-4.3 9.9-4.7 11.3-1.3 5.1-2.1 2.2-2.7-9.5-.9-17.4-2.6-20-13-20-6.4 0-7.1.2-9.8 3.1zm58.9 67c25.1 2.7 50.1 9.7 70.7 19.9 21.6 10.7 38.6 23.2 57 42.2l12 12.3-11.5.6c-13.4.8-23.7 3.7-34.2 9.9-13.6 8.1-21.2 17.2-25.8 31-1.8 5.3-2.1 8.2-1.8 15.6.3 8.2.8 10 4.2 16.9 7.3 14.8 21.8 25.9 40.6 31.1 8.9 2.5 29 2.5 37.8.1 11.1-3 20.9-7.7 26.2-12.4 2.8-2.5 5.2-4.4 5.4-4.2 1.2 1.6 2.8 17.5 3.3 33.1.7 25-1.7 43.9-8.4 65.2l-2.5 7.9-3.4-3.5c-1.9-1.9-3.5-4.3-3.6-5.4-.1-1 2-6.6 4.7-12.4 4.6-9.9 4.9-11.1 5.3-20.5l.4-10-3.4-4.9c-5.3-7.7-10.6-10.1-32.2-14.5-20.3-4.2-19.7-3.9-36.1-16.1-15.9-12-26.5-16-41.7-16-15.8 0-17.6.7-49.8 18.5l-18.5 10.3-11.5.6c-43.8 2.6-55.1 6.1-62.5 19.6-2.8 5.2-3 6.2-3 16.5 0 15.6 1.7 19 19.3 39.3 3.5 4 7.2 9.4 8.4 12 2.3 5.4 3.4 14.9 2.4 21.7-.9 5.6.5 5.8-21.1-2.2-9.1-3.3-15.6-6.3-16.6-7.6-3.3-4.1-15.9-28.4-22.4-43.2-9.8-22-11.8-29.4-11.7-43.5 0-13.9 1.7-21.1 9.8-40.7 3.1-7.6 6.6-16.6 7.8-20l2.1-6.2 3.5 6.7c5.2 9.9 17.4 21.9 27 26.5 11.9 5.7 19.2 7.1 37 7.2 13.2 0 16.6-.3 23.3-2.3 12.8-3.7 23.3-9.5 30.7-17.1 15.6-15.9 18.6-33.4 9.3-53.4-6-12.7-19.2-23.2-36.9-29.3-14-4.8-39.2-4.5-54.8.7-13.9 4.6-29.6 17.1-35 27.8-2.3 4.4-5.5 15.8-5.6 19.6 0 .5-.9-.4-1.9-2.1-2.5-4.1-6.5-7.1-11.4-8.6-3.2-1-5.4-.9-11.3.3l-7.4 1.5v-10.3c0-11.2-1.3-15.5-6.2-20-6.4-6-17.7-5.6-30.7 1.2-1.8.9-3.4 1.5-3.6 1.3-.6-.6 2.6-14.1 4-16.8 1.9-3.6 20.8-22.5 30.1-30 30.7-24.7 65.9-39.2 107.9-44.3 6.7-.9 27.2-.6 36.3.4zm-26.5 102.4c13.2 2.8 26.1 10.5 29.9 17.8 4.9 9.6 1.2 20.2-9.2 26.5-16.2 9.7-32.1 11.5-49.9 5.6-9-3-14.6-6.6-19.5-12.7-2.7-3.4-3.1-4.6-3.1-10 0-4.7.7-7.3 2.5-10.5 3.9-6.9 15.9-13.9 28.5-16.7 7.9-1.8 12.6-1.8 20.8 0zm166 0c8.6 1.8 15.2 5.4 21.5 11.7 7.3 7.3 9 16.4 4.6 24.9-4.2 8.2-18.7 15.6-32.4 16.6-17.4 1.3-36.6-8.5-39.9-20.3-1.4-5.2-1.4-7.1.4-13.2 1.2-3.9 2.7-6 6.2-9.1 5.6-4.8 12.9-8.5 20.3-10.5 7-1.9 10.9-1.9 19.3-.1zM98.4 210.8c.9 1.8 3.5 4.4 5.7 5.9 3.4 2.2 5.1 2.7 10.2 2.6 3.4-.1 7.5-.6 9.1-1.2 1.6-.6 3-1 3.2-.8.3.2-1.1 3.7-3 7.8-8.2 17.9-12.1 35.5-12 53.9.1 11.6.6 15.2 3.2 25.3 3.5 13.3 11.4 31.7 25.3 58.4L149 380v14.7c0 15.6-1.4 26.6-4.9 39.8-3.2 11.9-2.9 11.7-10.3 6.5-23.6-16.5-45.2-38.2-59.1-59.2-15.7-23.9-25.8-51.4-30.3-82.5-2.4-16.4-2.4-47.2 0-60.8 2.3-13 7.5-30.7 12.1-41.8l3.8-8.8 2.6 2.4c4 3.8 6.5 4.7 12.3 4.7 5.5 0 10.7-2 16.8-6.3l3.5-2.5.6 10.8c.5 6.8 1.3 11.8 2.3 13.8zm235.3 52.7c2.9.9 8.1 3.6 11.5 6 26.1 18.3 26.7 18.7 36.2 21.1 5 1.2 12.5 2.7 16.6 3.4 8.7 1.3 14 2.8 14 4 0 .4-2.3 6.1-5.1 12.6-2.9 6.8-5.3 14.1-5.6 17-.7 6.6 1.1 13.9 4.6 19.3 1.6 2.3 12.6 14.4 24.5 26.7 26.8 27.8 29.5 32.4 24.7 42.9-2.5 5.6-13.2 15-21.7 19.1-12.9 6.2-41.1 12.4-66.2 14.5-17.1 1.5-57.6.6-76.2-1.6-29.2-3.5-42.9-7.4-53.7-15.6-4.4-3.3-5.5-4.8-6.8-9.3-1.5-5.3-1.5-5.9 2.6-28.7 4.7-26.5 4.7-33.1.3-46.9-3.2-10.2-6.6-15.7-16.9-27.5-10.2-11.7-13.1-17.1-11.4-20.9 2-4.2 7-5.3 34-7.6 24.4-2 25.6-2.2 33.2-5.5 4.3-1.9 11.5-5.7 15.8-8.5 4.4-2.8 13-7.8 19.2-11.1 10.4-5.6 11.6-6 16.2-5.5 2.8.3 7.4 1.3 10.2 2.1zM191.5 401.3l12 4.2.6 12.5c.7 13.7 1.9 17.9 7.7 26.9 6.9 10.5 19.6 17.9 40.1 23.4 6.6 1.7 12.1 3.5 12.1 3.8 0 1.1-22.8 2.1-32.3 1.4-20.2-1.4-38.9-5.4-57-12.2-8.8-3.2-9.8-3.9-9.3-5.7.2-1.2 1.8-6.7 3.5-12.4 3.6-12.3 6.1-28 6.1-38.6 0-9.3-.5-9.2 16.5-3.3z"/><path d="M217 191.8c-7.1 1.1-11.2 11.1-7.6 18.1 2.2 4.2 5.8 6.1 11.7 6.1 4.4 0 5.5-.4 8-3.1 3.5-3.8 4.4-8.2 2.7-13.3-2-5.9-7.8-9-14.8-7.8zM381.7 194c-5.5 4.3-5.8 13.6-.7 18.5 3.9 3.8 11.1 4.5 15.7 1.6s6.7-11 4.2-16.5c-2.5-5.4-14.2-7.5-19.2-3.6zM287.9 297.8c-3.1 2.8-4.2 4.7-4.6 7.8-1.4 10.5 12.1 26 24.3 28 15 2.4 21.5-17.9 7.9-24.6-2.5-1.3-5.4-4-7.7-7.4-3.1-4.5-4.5-5.5-8.2-6.5-6.6-1.6-7.3-1.5-11.7 2.7zM347.8 295.6c-1.4.7-4.2 3.6-6.2 6.3-2 2.9-5.3 5.9-7.6 7.1-6.5 3.3-8.7 10.1-5.6 17.4 2.1 4.9 5.1 6.6 12 6.6 4.9 0 6.7-.5 10.8-3.1 5.4-3.5 10.9-9.4 13.2-14.4 2.1-4.3 2.1-12.4 0-15.3-3.1-4.5-12-7-16.6-4.6z"/></svg>